<?xml version="1.0" encoding="utf-8"?>
<!-- Generator: Adobe Illustrator 25.2.1, SVG Export Plug-In . SVG Version: 6.00 Build 0)  -->
<svg version="1.0" xmlns="http://www.w3.org/2000/svg" xmlns:xlink="http://www.w3.org/1999/xlink" x="0px" y="0px"
	 viewBox="0 0 595.3 841.9" style="enable-background:new 0 0 595.3 841.9;" xml:space="preserve">
<style type="text/css">
	.st0{display:none;fill:#8D915A;}
	.st1{fill:#F9FF00;}
	.st2{display:none;fill:#F9FF00;}
</style>
<g id="Layer_2">
	<rect class="st0" width="595.3" height="841.9"/>
	<path class="st1" d="M239.3,747.3c-1.8,10.2,11.6,15.7,17.5,7.2L359,608.9l148.2-217.8c4.1-6,0.4-14.2-6.9-15.1l-184.2-22
		c-5.1-0.6-9.8,2.9-10.7,8L239.3,747.3z"/>
</g>
<g id="Layer_1">
	
		<image style="display:none;overflow:visible;" width="1553" height="3056" xlink:href="D:\COURSES\Produccion Multimedia\Empresa Strike\Rayo Refrescado.png"  transform="matrix(0.2441 0 0 0.2441 137.1144 44)">
	</image>
	<path class="st2" d="M133.5,33c103.7,11.6,207.4,23.1,311.2,34.7c5.3,0.6,8.8,5.9,7.1,11l-85.5,258.4c-1.7,5,1.7,10.3,6.9,11
		l116.3,14.9c6.3,0.8,9.5,7.9,5.9,13.1L242.6,746.3c-5.1,7.5-16.8,2.8-15.3-6.1l40.2-241.9c0.8-5-2.9-9.6-8-9.8l-127.3-5.3
		c-4.5-0.2-8.1-3.9-8.1-8.4V41.4C124.1,36.4,128.5,32.5,133.5,33z"/>
	<path class="st1" d="M311.2,503.2l-154.7-7.3c-10.9-0.5-19.4-9.5-19.4-20.4V66.6c0-12.1,10.5-21.5,22.5-20.3l283.2,29.9
		c12.9,1.4,21.3,14.3,17.2,26.7L331.5,489.2C328.6,497.9,320.3,503.6,311.2,503.2z"/>
</g>
</svg>
