<?xml version="1.0" encoding="utf-8"?>
<!-- Generator: Adobe Illustrator 25.2.1, SVG Export Plug-In . SVG Version: 6.00 Build 0)  -->
<svg version="1.1" xmlns="http://www.w3.org/2000/svg" xmlns:xlink="http://www.w3.org/1999/xlink" x="0px" y="0px"
	 viewBox="0 0 200 200" style="enable-background:new 0 0 200 200;" xml:space="preserve">
<style type="text/css">
	.st0{display:none;}
	.st1{fill:#1D417C;stroke:url(#SVGID_1_);stroke-miterlimit:10;}
	.st2{fill:#077553;}
	.st3{opacity:0.32;fill:#5C65E5;}
	.st4{fill:#ED3A58;}
	.st5{fill:none;stroke:#FFFFFF;stroke-width:3;stroke-miterlimit:10;}
	.st6{fill:#1D417C;stroke:#FFFFFF;stroke-width:3;stroke-miterlimit:10;}
	.st7{opacity:0.4;fill:#1D417C;stroke:#FFFFFF;stroke-width:2;stroke-miterlimit:10;}
</style>
<g id="Layer_2" class="st0">
	<radialGradient id="SVGID_1_" cx="100" cy="100" r="100.5" gradientUnits="userSpaceOnUse">
		<stop  offset="0" style="stop-color:#FFFFFF"/>
		<stop  offset="1" style="stop-color:#000000"/>
	</radialGradient>
	<rect class="st1" width="200" height="200"/>
</g>
<g id="Layer_4">
	<polygon class="st2" points="58,74 100.3,97.2 100,143.5 58,121.5 	"/>
	<polygon class="st3" points="143.2,75.4 143.2,122.3 100,143.5 100,96 	"/>
	<polygon class="st4" points="57.6,72.7 100,96 143.9,74 100.3,53.7 	"/>
</g>
<g id="Layer_3">
	<path class="st5" d="M58.6,74.5L99,95.8c0.6,0.3,1.3,0.3,1.9,0l41.1-20c1.6-0.8,1.6-3.1-0.1-3.9l-40.8-18.1c-0.5-0.2-1.1-0.2-1.7,0
		L58.8,70.6C57.1,71.3,57,73.7,58.6,74.5z"/>
	<path class="st5" d="M58.6,122L99,143.3c0.6,0.3,1.3,0.3,1.9,0l41.1-20c1.6-0.8,1.6-3.1-0.1-3.9l-40.8-18.1c-0.5-0.2-1.1-0.2-1.7,0
		l-40.7,16.8C57.1,118.8,57,121.1,58.6,122z"/>
	<line class="st6" x1="57.6" y1="73.5" x2="57.6" y2="121"/>
	<line class="st6" x1="100" y1="96" x2="100" y2="143.5"/>
	<line class="st7" x1="100.3" y1="53.7" x2="100.3" y2="101.1"/>
	<line class="st6" x1="143.2" y1="74.8" x2="143.2" y2="122.3"/>
</g>
</svg>
