<?xml version="1.0" encoding="utf-8"?>
<!-- Generator: Adobe Illustrator 25.2.1, SVG Export Plug-In . SVG Version: 6.00 Build 0)  -->
<svg version="1.1" xmlns="http://www.w3.org/2000/svg" xmlns:xlink="http://www.w3.org/1999/xlink" x="0px" y="0px"
	 viewBox="0 0 200 200" style="enable-background:new 0 0 200 200;" xml:space="preserve">
<style type="text/css">
	.st0{display:none;}
	.st1{fill:#1D417C;stroke:url(#SVGID_1_);stroke-miterlimit:10;}
	.st2{display:inline;fill:#077553;}
	.st3{display:inline;opacity:0.32;fill:#5C65E5;}
	.st4{display:inline;fill:#ED3A58;}
	.st5{display:inline;fill:none;stroke:#FFFFFF;stroke-width:3;stroke-miterlimit:10;}
	.st6{display:inline;fill:#1D417C;stroke:#FFFFFF;stroke-width:3;stroke-miterlimit:10;}
	.st7{display:inline;opacity:0.4;fill:#1D417C;stroke:#FFFFFF;stroke-width:2;stroke-miterlimit:10;}
	.st8{display:inline;fill:#5C65E5;}
	.st9{display:inline;fill:#2891B5;stroke:#FFFFFF;stroke-width:3;stroke-miterlimit:10;}
	.st10{fill:#23A3C1;stroke:#FFFFFF;stroke-width:3;stroke-miterlimit:10;}
	.st11{fill:#1737A0;stroke:#FFFFFF;stroke-width:3;stroke-miterlimit:10;}
</style>
<g id="Layer_2" class="st0">
	<radialGradient id="SVGID_1_" cx="100" cy="100" r="100.5" gradientUnits="userSpaceOnUse">
		<stop  offset="0" style="stop-color:#FFFFFF"/>
		<stop  offset="1" style="stop-color:#000000"/>
	</radialGradient>
	<rect class="st1" width="200" height="200"/>
</g>
<g id="Layer_4" class="st0">
	<polygon class="st2" points="58,74 100.3,97.2 100,143.5 58,121.5 	"/>
	<polygon class="st3" points="143.2,75.4 143.2,122.3 100,143.5 100,96 	"/>
	<polygon class="st4" points="57.6,72.7 100,96 143.9,74 100.3,53.7 	"/>
</g>
<g id="Layer_3" class="st0">
	<path class="st5" d="M58.6,74.5L99,95.8c0.6,0.3,1.3,0.3,1.9,0l41.1-20c1.6-0.8,1.6-3.1-0.1-3.9l-40.8-18.1c-0.5-0.2-1.1-0.2-1.7,0
		L58.8,70.6C57.1,71.3,57,73.7,58.6,74.5z"/>
	<path class="st5" d="M58.6,122L99,143.3c0.6,0.3,1.3,0.3,1.9,0l41.1-20c1.6-0.8,1.6-3.1-0.1-3.9l-40.8-18.1c-0.5-0.2-1.1-0.2-1.7,0
		l-40.7,16.8C57.1,118.8,57,121.1,58.6,122z"/>
	<line class="st6" x1="57.6" y1="73.5" x2="57.6" y2="121"/>
	<line class="st6" x1="100" y1="96" x2="100" y2="143.5"/>
	<line class="st7" x1="100.3" y1="53.7" x2="100.3" y2="101.1"/>
	<line class="st6" x1="143.2" y1="74.8" x2="143.2" y2="122.3"/>
</g>
<g id="Layer_5" class="st0">
	<rect class="st8" width="200" height="200"/>
</g>
<g id="Layer_6" class="st0">
	<path class="st9" d="M116.1,145.6H31c-5.9,0-10.8-4.8-10.8-10.8V63c0-5.9,4.8-10.8,10.8-10.8h85.1c5.9,0,10.8,4.8,10.8,10.8v71.8
		C126.9,140.8,122.1,145.6,116.1,145.6z"/>
	<path class="st9" d="M181.7,101.2v29.3c0,7.6-6.4,12.3-11.5,8.5l-19.8-14.7l-19.8-14.7c-5.1-3.8-5.1-13.3,0-17.1L150.4,78
		l19.8-14.7c5.1-3.8,11.5,0.9,11.5,8.5V101.2z"/>
</g>
<g id="Layer_7">
</g>
<g id="Layer_7_copy">
	<path class="st10" d="M53,161.9H41.2c-6.5,0-11.7-5.2-11.7-11.7v-37.5c0-6.5,5.2-11.7,11.7-11.7H53c6.5,0,11.7,5.2,11.7,11.7v37.5
		C64.7,156.7,59.5,161.9,53,161.9z"/>
	<path class="st10" d="M153.1,161.9h-11.8c-6.5,0-11.7-5.2-11.7-11.7v-37.5c0-6.5,5.2-11.7,11.7-11.7h11.8c6.5,0,11.7,5.2,11.7,11.7
		v37.5C164.8,156.7,159.6,161.9,153.1,161.9z"/>
	<path class="st11" d="M50.1,96.1c5-28.3,24-49.4,46.7-49.4s41.7,21.1,46.7,49.4h10.1c-5.2-35.6-28.6-62.5-56.8-62.5
		c-28.2,0-51.6,26.9-56.8,62.5H50.1z"/>
</g>
</svg>
